<svg xmlns="http://www.w3.org/2000/svg" fill="none" viewBox="-1 -1 24 24" id="Add-Circle--Streamline-Core" height="24" width="24"><desc>Add Circle Streamline Icon: https://streamlinehq.com</desc><g id="add-circle--button-remove-cross-add-buttons-plus-circle-+-mathematics-math"><path id="Vector" fill="#d7ffd8" d="M11 21.214285714285715c5.641271428571429 0 10.214285714285714 -4.573014285714286 10.214285714285714 -10.214285714285714C21.214285714285715 5.358807142857143 16.64127142857143 0.7857142857142857 11 0.7857142857142857 5.358807142857143 0.7857142857142857 0.7857142857142857 5.358807142857143 0.7857142857142857 11c0 5.641271428571429 4.573092857142857 10.214285714285714 10.214285714285714 10.214285714285714Z" stroke-width="2"></path><path id="Vector_2" stroke="#41d551" stroke-linecap="round" stroke-linejoin="round" d="M11 21.214285714285715c5.641271428571429 0 10.214285714285714 -4.573014285714286 10.214285714285714 -10.214285714285714C21.214285714285715 5.358807142857143 16.64127142857143 0.7857142857142857 11 0.7857142857142857 5.358807142857143 0.7857142857142857 0.7857142857142857 5.358807142857143 0.7857142857142857 11c0 5.641271428571429 4.573092857142857 10.214285714285714 10.214285714285714 10.214285714285714Z" stroke-width="2"></path><path id="Vector_3" stroke="#41d551" stroke-linecap="round" stroke-linejoin="round" d="M11 6.285714285714286v9.428571428571429" stroke-width="2"></path><path id="Vector_4" stroke="#41d551" stroke-linecap="round" stroke-linejoin="round" d="M6.285714285714286 11h9.428571428571429" stroke-width="2"></path></g></svg>