<svg xmlns="http://www.w3.org/2000/svg" fill="none" viewBox="-0.5 -0.5 24 24" height="24" width="24" id="Cancel-Fill--Streamline-Outlined-Fill---Material-Symbols">
  <path fill="#000000" d="M7.90625 16.1L11.5 12.506250000000001L15.09375 16.1L16.1 15.09375L12.506250000000001 11.5L16.1 7.90625L15.09375 6.9L11.5 10.49375L7.90625 6.9L6.9 7.90625L10.49375 11.5L6.9 15.09375L7.90625 16.1ZM11.5 21.083333333333336C10.19029375 21.083333333333336 8.952414583333333 20.831770833333334 7.786458333333334 20.328645833333333C6.620502083333334 19.825520833333336 5.602272916666667 19.13873125 4.731770833333334 18.268229166666668C3.861283125 17.397727083333336 3.174479166666667 16.37949791666667 2.6713541666666667 15.213541666666668C2.168229166666667 14.047585416666667 1.9166666666666667 12.80970625 1.9166666666666667 11.5C1.9166666666666667 10.174289583333334 2.168229166666667 8.92845625 2.6713541666666667 7.7625C3.174479166666667 6.59654375 3.861283125 5.582291666666667 4.731770833333334 4.719791666666667C5.602272916666667 3.8572916666666672 6.620502083333334 3.174479166666667 7.786458333333334 2.6713541666666667C8.952414583333333 2.168229166666667 10.19029375 1.9166666666666667 11.5 1.9166666666666667C12.825710416666666 1.9166666666666667 14.071543750000002 2.168229166666667 15.2375 2.6713541666666667C16.40345625 3.174479166666667 17.417708333333334 3.8572916666666672 18.280208333333334 4.719791666666667C19.142708333333335 5.582291666666667 19.825520833333336 6.59654375 20.328645833333333 7.7625C20.831770833333334 8.92845625 21.083333333333336 10.174289583333334 21.083333333333336 11.5C21.083333333333336 12.80970625 20.831770833333334 14.047585416666667 20.328645833333333 15.213541666666668C19.825520833333336 16.37949791666667 19.142708333333335 17.397727083333336 18.280208333333334 18.268229166666668C17.417708333333334 19.13873125 16.40345625 19.825520833333336 15.2375 20.328645833333333C14.071543750000002 20.831770833333334 12.825710416666666 21.083333333333336 11.5 21.083333333333336Z" stroke-width="1"></path>
</svg>