<svg xmlns="http://www.w3.org/2000/svg" fill="none" viewBox="0 0 400 400" id="Empty-Cart-1--Streamline-Bruxelles" height="400" width="400"><desc>Empty Cart 1 Streamline Illustration: https://streamlinehq.com</desc><g id="empty-cart-1--shopping-e-commerce-empty-cart"><g id="cart"><path id="vector" fill="#d7006e" d="M279.1382 328.097C287.5406 332.1608 287.2534 348.8712 278.7236 352.3726C284.4662 355.1516 290.925 349.4254 290.925 340.3272S284.6366 325.8456 279.1382 328.097Z" stroke-width="1"></path><path id="vector_2" fill="#d7006e" d="M223.373 367.6218C232.379 371.7964 232.4898 389.7546 223.568 394.1836C229.7108 397.0324 236.6232 390.8362 236.6232 380.8554C236.6232 370.4972 229.4276 364.6212 223.3732 367.6218Z" stroke-width="1"></path><path id="vector_3" fill="#d7006e" d="M193.197 290.5674C200.7004 294.2944 200.7046 309.4616 193.2072 313.203C198.4038 315.789 204.3968 310.5432 204.3968 301.882C204.3968 292.9378 198.25 288.0532 193.197 290.5674Z" stroke-width="1"></path><path id="vector_4" fill="#d7006e" d="M190.4262 289.9004C195.075 289.9004 198.843 295.2672 198.843 301.8882S195.075 313.8742 190.4262 313.8742C185.7776 313.8742 182.0094 308.5072 182.0094 301.8882C182.0094 295.2694 185.7776 289.9024 190.4262 289.9024V289.9004Z" stroke-width="1"></path><path id="vector_5" fill="#5d0029" d="M195.982 288.868L190.4262 288.872C185.2194 288.872 180.9832 294.711 180.9832 301.8862S185.2174 314.8982 190.4262 314.8982L195.982 314.892C201.189 314.892 205.425 309.0552 205.425 301.88S201.189 288.868 195.982 288.868ZM183.0356 301.8862C183.0356 295.842 186.3502 290.9244 190.4262 290.9244S197.8168 295.842 197.8168 301.8862C197.8168 307.9304 194.5024 312.8458 190.4262 312.8458S183.0356 307.9284 183.0356 301.8862ZM195.5388 312.8212C201.31 307.678 201.308 296.0758 195.5284 290.9408C200.3248 290.4934 203.3726 296.431 203.3726 301.88C203.3726 307.4132 200.2858 313.244 195.5388 312.8212Z" stroke-width="1"></path><path id="vector_6" fill="#d7006e" d="M276.1172 327.391C281.1886 327.391 285.2974 333.1008 285.2974 340.1424S281.1864 352.894 276.1172 352.894C271.0478 352.894 266.9348 347.1842 266.9348 340.1424S271.0458 327.391 276.1172 327.391Z" stroke-width="1"></path><path id="vector_7" fill="#5d0029" d="M281.7448 326.5496C280.856 326.5496 277.1802 326.3648 276.1192 326.3648C270.4896 326.3648 265.9106 332.5466 265.9106 340.1424S270.4896 353.92 276.1192 353.92C277.0078 353.92 280.6836 354.1048 281.7448 354.1048C287.3724 354.1048 291.9532 347.923 291.9532 340.3272S287.3744 326.5496 281.7448 326.5496ZM267.963 340.1446C267.963 333.6796 271.6204 328.4194 276.1192 328.4194S284.2754 333.6796 284.2754 340.1446S280.616 351.8698 276.1192 351.8698C271.6224 351.8698 267.963 346.6096 267.963 340.1446ZM281.2686 352.034C287.8178 346.8476 288.0496 334.2152 281.6894 328.602C286.732 328.5116 289.9008 334.6524 289.9008 340.3272C289.9008 346.1518 286.5248 352.469 281.2686 352.034Z" stroke-width="1"></path><path id="vector_8" fill="#d7006e" d="M220.2658 366.922C225.76 366.922 230.2116 373.2022 230.2116 380.95S225.758 394.9758 220.2658 394.9758S210.32 388.6956 210.32 380.9478S214.7736 366.922 220.2658 366.922Z" stroke-width="1"></path><path id="vector_9" fill="#5d0029" d="M226.6754 365.8014C225.522 365.8014 221.3392 365.8936 220.2658 365.8936C214.2154 365.8936 209.2918 372.648 209.2918 380.9458C209.2918 389.2436 214.2134 396 220.2658 396C221.4192 396 225.602 395.9076 226.6754 395.9076C232.7258 395.9076 237.6494 389.1532 237.6494 380.8554C237.6494 372.5578 232.7278 365.8014 226.6754 365.8014ZM211.344 380.9478C211.344 373.7788 215.3462 367.948 220.2658 367.948C225.1854 367.948 229.1854 373.781 229.1854 380.9478C229.1854 388.1148 225.1832 393.9496 220.2658 393.9496S211.344 388.1168 211.344 380.9478ZM225.957 393.8142C233.0932 387.85 232.9576 373.6598 225.76 367.9234C231.6482 367.043 235.595 374.1114 235.595 380.8554C235.595 387.462 231.7674 394.4772 225.957 393.8142Z" stroke-width="1"></path><path id="vector_10" fill="#d7006e" d="M101.5584 333.7C100.6184 333.7 99.7112 333.9012 98.8574 334.2728C106.7488 338.9808 106.1762 355.1372 97.9974 358.7002C104.2736 362.4374 110.7386 355.6666 110.7386 346.708C110.7386 339.5248 106.6298 333.7022 101.5584 333.7022V333.7Z" stroke-width="1"></path><path id="vector_11" fill="#d7006e" d="M95.2966 333.2568C100.368 333.2568 104.4788 339.0794 104.4788 346.2626C104.4788 353.446 100.368 359.2706 95.2966 359.2706S86.1142 353.448 86.1142 346.2648C86.1142 339.0814 90.2252 333.2588 95.2966 333.2588V333.2568Z" stroke-width="1"></path><path id="vector_12" fill="#5d0029" d="M101.5584 332.6738C100.6492 332.6738 96.5752 332.2306 95.2966 332.2306C89.669 332.2306 85.088 338.5252 85.088 346.2626C85.088 354.0002 89.6668 360.2968 95.2966 360.2968C96.2078 360.2968 100.2818 360.738 101.5584 360.738C107.186 360.738 111.7668 354.4434 111.7668 346.706C111.7668 338.9686 107.188 332.6738 101.5584 332.6738ZM87.1424 346.2648C87.1424 339.6582 90.7998 334.285 95.2986 334.285S103.4548 339.6602 103.4548 346.2648C103.4548 352.8692 99.7954 358.2466 95.2986 358.2466C90.8018 358.2466 87.1424 352.8714 87.1424 346.2648ZM101.5584 358.6878C101.113 358.6878 100.6738 358.6344 100.249 358.5318C106.8658 353.4624 107.3172 340.6802 101.1192 334.7426C106.3916 334.3424 109.7144 340.7624 109.7144 346.706C109.7144 353.3126 106.055 358.6858 101.5584 358.6858V358.6878Z" stroke-width="1"></path><path id="vector_13" fill="#5d0029" d="M229.8544 368.26C225.5938 368.26 221.3042 367.6978 217.0662 366.5832C175.4214 357.7518 133.5324 346.1416 92.6838 332.0992C90.0548 331.3522 87.36 329.232 86.736 328.1936C85.679 326.4326 85.0982 324.4274 85.0982 322.5454C83.4994 298.6496 101.9422 275.4824 126.2136 271.0698C127.601 270.8172 128.9288 271.7368 129.1792 273.1222C129.4316 274.5074 128.5122 275.8354 127.1268 276.0878C105.6938 279.9852 88.7822 301.1822 90.1944 322.3772C90.1984 323.4136 90.4672 324.3966 90.9598 325.3038C91.9738 326.2582 93.0676 326.9068 94.217 327.235C134.9998 341.2508 176.6876 352.8056 218.2484 361.6226C222.8928 362.8418 227.48 363.3324 231.9952 363.1066C242.2612 361.4996 247.2586 357.5712 250.0006 356.0772C282.0424 338.6094 283.7582 332.563 283.8464 331.9494C283.8054 331.9392 283.6822 331.8468 283.4442 331.7338C276.3962 328.21 268.9194 325.6198 261.7218 322.02C248.5004 315.9204 223.9046 306.0238 195.3336 294.3006C190.215 292.6012 185.833 289.4098 184.0742 287.1194C180.6446 282.6616 180.3306 276.0118 184.7966 272.5762C185.9132 271.7162 187.514 271.9256 188.374 273.042C189.2318 274.1586 189.0224 275.7594 187.906 276.6194C185.794 278.2448 186.459 281.7852 188.0538 283.9258C190.3544 286.4052 193.3982 288.2872 197.1048 289.5206C213.22 296.1662 272.2094 320.413 285.6812 327.1488C288.4478 328.4644 288.92 330.603 288.9506 331.7586C289.0164 334.1598 289.1826 340.5222 252.441 360.5554C250.1834 361.7868 244.4736 366.3472 232.6458 368.1656C232.223 368.2314 230.5072 368.258 229.8606 368.258L229.8546 368.26Z" stroke-width="1"></path><path id="vector_14" fill="#ffe9f4" d="M154.9756 138.6626L312.0788 194.516L292.9508 267.712C292.4396 269.7522 290.3996 271.0266 288.105 270.5176L171.0436 241.4436L154.9756 138.6626Z" stroke-width="1"></path><path id="vector_15" fill="#ffe9f4" d="M57.5512 163.1476L154.9756 138.6648L171.0436 241.4436L105.4988 265.672C97.8476 268.4776 89.1764 264.652 86.3708 257.0008C86.3708 256.7934 58.3906 163.1476 57.5512 163.1476Z" stroke-width="1"></path><path id="vector_16" fill="#5d0029" d="M156.244 140.547C154.9736 132.2862 152.8986 123.4506 145.0914 119.0708L147.0698 118.6666C149.8302 118.1022 151.6096 115.4074 151.0452 112.647C150.4808 109.8864 147.782 108.107 145.0256 108.6714L32.8098 131.6252C30.0494 132.1896 28.27 134.8844 28.8344 137.6448C29.3988 140.395 32.0812 142.1848 34.854 141.6204L42.1646 140.1242C51.0576 145.2858 53.9944 154.5092 57.0834 164.2212C57.2578 164.767 57.8406 165.0584 58.3722 164.8882C58.914 164.7158 59.2116 164.139 59.0392 163.5992C56.0366 154.1624 53.1736 145.1668 45.0708 139.529L141.7028 119.7646C150.7066 123.1386 152.8494 131.9762 154.2162 140.8588C154.3024 141.413 154.8176 141.803 155.386 141.7168C155.9442 141.6306 156.3302 141.1072 156.244 140.547Z" stroke-width="1"></path><path id="vector_17" fill="#5d0029" d="M312.4216 193.5494L154.9448 137.6386L57.303 162.1522C56.5558 162.3388 56.285 163.246 56.7734 163.8146C59.0208 168.4058 85.1394 256.976 85.3446 257.0006C85.3446 258.3122 88.0844 263.6688 93.6978 266.1932C97.5664 267.9316 101.8826 268.0896 105.854 266.6346L171.1032 242.517L287.8834 271.5192C290.691 272.1452 293.2874 270.5956 293.944 267.9728L313.0722 194.7768C313.2056 194.2616 312.9224 193.728 312.4216 193.5494ZM65.5062 184.2358C61.6272 171.6156 59.8458 166.1954 58.8812 163.87L154.134 139.931L157.3174 160.2948L66.2226 183.5748C65.8756 183.6632 65.615 183.9218 65.5062 184.2358ZM65.8614 185.3912C66.1118 185.578 66.4318 185.6416 66.7294 185.5636L157.6334 162.3328L160.1066 178.1462L71.5012 203.9282C69.256 196.511 67.4006 190.4092 65.8614 185.3912ZM105.1438 264.7074C98.0714 267.3036 90.0384 263.8146 87.3764 256.7668L72.0964 205.8882L160.4288 180.1884L169.9004 240.7706L105.1438 264.7074ZM291.9532 267.4616C291.5674 269.005 290.0096 269.8896 288.3514 269.5202L171.9508 240.6104L162.5344 180.371L302.7776 226.0468L291.9554 267.4616H291.9532ZM303.2434 224.2592L162.1794 178.097L159.7474 162.5502L306.8762 210.3584L303.2434 224.2592ZM307.3954 208.3696L159.3922 160.2762L156.2542 140.206L310.8454 195.1666L307.3954 208.3696Z" stroke-width="1"></path><path id="vector_18" fill="#d7006e" d="M236.5884 221.2954L311.5698 195.5366L292.1872 268.732C291.6762 270.5176 290.4016 272.0466 288.8726 272.8122L228.428 300.3572L236.5884 221.2954Z" stroke-width="1"></path><path id="vector_19" fill="#d7006e" d="M57.5512 163.1476L236.8428 220.2754C238.6284 220.7864 239.6484 222.3156 239.394 224.101L231.4882 295.766C231.2336 298.5716 228.6826 300.6116 225.877 300.1006L99.1242 273.0668C93.7676 272.0466 89.6874 267.9666 88.1584 262.8644L57.5534 163.1454L57.5512 163.1476Z" stroke-width="1"></path><path id="vector_20" fill="#5d0029" d="M311.2354 194.5658L238.1214 219.6844L57.8632 162.171C57.0752 161.9186 56.328 162.6594 56.5702 163.4496L87.1732 263.162C88.8768 268.8388 93.3816 273.0194 98.9088 274.0724L225.407 301.1062C228.7236 301.8164 228.9596 301.2418 232.1758 299.7764L289.3284 273.7316C291.1528 272.8204 292.5874 271.0574 293.1766 268.9948L312.5592 195.7992C312.7686 195.003 312.005 194.301 311.2334 194.5658H311.2354ZM278.4096 276.451L265.7362 282.2264L267.4274 272.3464L280.5974 266.5094C278.2926 276.7814 278.3932 276.2336 278.4096 276.451ZM248.6194 290.0254L250.1012 280.0222L265.1738 273.3438L263.4786 283.2546L248.6194 290.0254ZM276.228 208.7616L274.0648 221.396L257.8304 227.8528L259.8234 214.3954L276.228 208.7616ZM273.6584 223.7748L271.29 237.6058L255.423 244.0994L257.4794 230.213L273.6584 223.7748ZM270.8816 239.9906L268.3346 254.8744L252.8554 261.4298L255.0742 246.4596L270.8836 239.9906H270.8816ZM250.641 262.3676L235.4944 268.7814L237.1466 253.7948L252.8636 247.3628L250.641 262.3676ZM250.288 264.7464L248.2356 278.602L233.7006 285.0424L235.2358 271.119L250.288 264.7464ZM252.5024 263.8084L267.922 257.2778L265.5884 270.9158L250.4562 277.621L252.5024 263.8104V263.8084ZM267.842 269.9162L270.1672 256.3274L284.2178 250.3776L281.1558 264.0178L267.842 269.9184V269.9162ZM270.5778 253.9242L273.1186 239.0752L288.1318 232.9304L284.768 247.9128L270.5758 253.9242H270.5778ZM273.527 236.6904L275.8894 222.886L291.8096 216.5504L288.6818 230.4902L273.527 236.6904ZM276.2978 220.5074L278.4364 208.0022L295.0072 202.311L292.3556 214.1204L276.2956 220.5074H276.2978ZM239.827 221.2668L257.6354 215.1486L255.6242 228.7312L239.1908 235.268L240.4058 224.2448C240.5638 223.1426 240.3442 222.1124 239.827 221.2668ZM255.2732 231.0936L253.2126 245.0066L237.4032 251.4778L238.9342 237.5974L255.2732 231.0936ZM214.3898 214.1984L236.5576 221.2606C237.8424 221.628 238.5566 222.685 238.3698 223.9882L237.1466 235.0752L213.7906 227.9862L214.3898 214.1984ZM213.6982 230.1042L236.9168 237.1522L235.3344 251.4982L213.0456 245.144L213.6982 230.1042ZM235.1066 253.565L233.3764 269.2574L212.2636 263.1352L212.9532 247.2498L235.1066 253.565ZM212.3642 213.5518L211.7648 227.3706L187.5652 220.025L186.7176 205.3792L212.364 213.5518ZM211.6724 229.4886L211.0178 244.5654L188.614 238.1784L187.6904 222.2108L211.6724 229.4886ZM187.5878 255.9888L165.2128 249.5178L163.6858 233.2054L186.6498 239.7504L187.5898 255.9868L187.5878 255.9888ZM132.1982 224.2304L134.5606 240.674L106.3794 232.5816L102.8862 215.8732L132.1982 224.2304ZM102.4122 213.6052L98.5556 195.1548L129.368 204.507L131.8822 222.0056L102.4122 213.6052ZM134.3614 224.8462L161.5678 232.602L163.0948 248.904L136.7238 241.296L134.3614 224.8462ZM134.8808 242.903L137.3908 260.3728L110.7202 253.3392L106.8534 234.8474L134.8808 242.903ZM137.044 243.5268L163.302 251.1042L164.8474 267.6136L139.5438 260.9412L137.044 243.5268ZM186.5246 237.5832L163.4806 231.0136L161.9228 214.3872L185.599 221.5726L186.5246 237.5832ZM184.6242 204.7122L185.4738 219.3908L161.7176 212.1808L160.2912 196.9608L184.6242 204.7122ZM161.3626 230.4102L134.0414 222.6234L131.5334 205.1658L159.8008 213.7448L161.3626 230.4102ZM158.165 196.2836L159.5934 211.5364L131.211 202.9226L128.9186 186.9658L158.165 196.2836ZM126.7472 186.2742L129.0438 202.2658L98.0754 192.8664L94.5536 176.0164L126.7492 186.2762L126.7472 186.2742ZM59.1048 164.7222L92.3042 175.3L95.8342 192.187L64.6258 182.7154L59.1048 164.7222ZM65.3524 185.0796L96.3124 194.4776L100.1792 212.9732L71.3946 204.7678L65.3524 185.0796ZM72.1108 207.1034L100.6532 215.239L104.1464 231.9454C89.9296 227.8836 79.7888 225.0246 77.4368 224.4542L72.1108 207.1034ZM78.1324 226.724C81.5886 227.6436 91.3088 230.3998 104.6184 234.209L108.4954 252.7544L84.15 246.3346L78.1304 226.722L78.1324 226.724ZM99.309 272.059C94.5146 271.1458 90.615 267.511 89.1312 262.5648L84.8582 248.6454L108.9654 255.0018L113.1502 275.0164L99.309 272.059ZM115.3442 275.4864L111.184 255.5866L137.7006 262.579L140.3196 280.8226L115.3442 275.4864ZM142.458 281.2804L139.8536 263.1476L165.0424 269.789L166.6022 286.44L142.458 281.2804ZM165.414 251.7158L187.709 258.1624L188.6182 273.8836L166.9552 268.1698L165.414 251.7158ZM168.708 286.8894L167.1584 270.3452L188.7412 276.0366L189.6278 291.3596L168.708 286.8894ZM208.7992 295.4562L191.709 291.805L190.8286 276.5886L209.4046 281.4876L208.797 295.4582L208.7992 295.4562ZM209.497 279.388L190.7054 274.4316L189.8002 258.7658L210.1394 264.656L209.497 279.388ZM189.673 256.5922L188.733 240.3456L210.9192 246.671L210.2296 262.5462L189.673 256.5922ZM230.4578 295.6716C230.2136 298.3726 228.3254 299.0744 225.721 299.0744L210.833 295.8932L211.4344 282.0234L231.3814 287.2836L230.4578 295.6716ZM211.5268 279.9238L212.165 265.2452L233.1424 271.3264L231.6092 285.2188L211.5268 279.9216V279.9238ZM232.0894 297.5556C232.5308 296.47 232.4424 296.4022 233.4338 287.4046L247.8744 281.0054L246.3884 291.0394L232.0894 297.5556ZM291.1918 268.4488C290.769 269.9246 289.7018 271.2442 288.4374 271.8784L280.698 275.4064L282.9268 265.477L293.1826 260.933L291.1918 268.451V268.4488ZM293.8558 258.3882L283.4872 262.9834L286.537 249.3926L297.4638 244.7664L293.8558 258.3882ZM298.1288 242.2544L287.0912 246.9296L290.4468 231.9822L302.1146 227.2064L298.1308 242.2544H298.1288ZM302.7712 224.721L290.9948 229.542L294.1164 215.631L306.482 210.7094L302.7712 224.721ZM307.1346 208.2404L294.6604 213.201L297.2812 201.527L310.0758 197.1312L307.1326 208.2404H307.1346Z" stroke-width="1"></path></g><g id="empty"><path id="vector_21" fill="#5d0029" d="M109.3246 180.4962C108.7026 180.4962 108.2286 179.9524 108.3044 179.3428C108.563 177.27 109.072 174.9898 109.3246 172.966C109.3944 172.4038 109.9094 172.0036 110.4698 172.0754C111.0322 172.1452 111.4302 172.6582 111.3604 173.2206C111.1018 175.2934 110.593 177.5736 110.3404 179.5974C110.2768 180.1166 109.8336 180.4962 109.3246 180.4962Z" stroke-width="1"></path><path id="vector_22" fill="#5d0029" d="M259.0906 195.0948C258.4872 195.0948 258.0192 194.5796 258.0664 193.9866C258.4338 189.4324 258.6514 185.3706 258.7356 181.5696C258.7664 180.1864 260.8166 180.2726 260.788 181.6148C260.7038 185.4548 260.4842 189.5576 260.1126 194.1528C260.0696 194.6906 259.6202 195.0948 259.0906 195.0948ZM259.497 170.1276C258.9634 170.1276 258.5118 169.713 258.475 169.1734C258.1774 164.8982 257.6416 160.773 256.8822 156.9144C256.7734 156.3582 257.1348 155.8186 257.691 155.7098C258.245 155.599 258.7868 155.9622 258.8956 156.5184C259.6694 160.461 260.2174 164.6684 260.5212 169.0296C260.5622 169.6228 260.0942 170.1276 259.497 170.1276ZM113.1482 161.8792C112.475 161.8792 111.9844 161.243 112.1548 160.5924C113.224 156.5328 114.6586 152.4402 116.0522 148.6228C116.2452 148.0914 116.8342 147.8162 117.3678 148.0112C117.9014 148.2062 118.1744 148.7952 117.9794 149.3268C116.6044 153.097 115.1862 157.134 114.1394 161.1136C114.0184 161.5734 113.6016 161.8792 113.1482 161.8792ZM253.779 146.0164C253.4528 146.0164 253.1366 145.8584 252.9458 145.5566C250.7046 142.5396 247.778 140.5612 243.3592 138.991C242.8256 138.8022 242.5464 138.2152 242.7352 137.6796C242.9262 137.146 243.511 136.8668 244.0466 137.0556C248.0036 138.4616 252.3712 140.8772 254.6472 144.4052C255.0782 145.0886 254.6206 146.0142 253.777 146.0142L253.779 146.0164ZM122.429 138.8042C121.5936 138.8042 121.095 137.8376 121.6142 137.1562C122.6978 135.736 123.9128 134.4368 125.2284 133.2978C127.4122 131.7892 129.7334 130.6502 132.2148 129.8456C132.7544 129.6712 133.3332 129.9668 133.5078 130.5044C133.6822 131.0442 133.3866 131.623 132.8488 131.7974C130.5544 132.5426 128.4138 133.5912 126.4824 134.9192C123.3114 137.6898 123.4592 138.8044 122.431 138.8044H122.429ZM231.673 135.6846C231.1864 135.6846 227.8062 134.6174 219.2786 132.9426C218.7224 132.834 218.3592 132.2942 218.47 131.738C218.5788 131.1818 219.1144 130.8184 219.6748 130.9294C223.763 131.7318 227.8822 132.6512 231.9212 133.663C233.089 133.9546 232.8756 135.6846 231.673 135.6846ZM207.1594 130.8678C206.716 130.8678 202.9006 130.1618 194.6542 129.4044C194.0898 129.3532 193.6732 128.8524 193.7264 128.288C193.7778 127.7236 194.2806 127.3048 194.841 127.3602C198.9908 127.742 203.1818 128.2346 207.303 128.8256C208.555 129.0042 208.4236 130.8678 207.1594 130.8678ZM144.847 129.9072C143.5624 129.9072 143.4576 128.0046 144.7342 127.861C148.8718 127.3992 153.0772 127.038 157.2352 126.7836C157.7934 126.7446 158.286 127.1796 158.321 127.746C158.3558 128.3126 157.9248 128.799 157.3584 128.8318C148.484 129.3716 145.469 129.9052 144.845 129.9052L144.8472 129.9072ZM182.2804 128.5834C181.716 128.5794 176.897 128.3208 169.7958 128.3926C169.2396 128.411 168.7654 127.943 168.7594 127.3766C168.7532 126.8102 169.2088 126.3464 169.7752 126.3402C173.9436 126.297 178.1592 126.3628 182.3214 126.531C183.6514 126.5844 183.6104 128.5938 182.2804 128.5834Z" stroke-width="1"></path><path id="vector_23" fill="#5d0029" d="M256.991 214.1614C256.3692 214.1614 255.895 213.6176 255.971 213.008C256.0982 211.99 256.6092 207.6534 256.7366 206.6312C256.8064 206.0688 257.3214 205.6666 257.8818 205.7406C258.4442 205.8102 258.8422 206.3234 258.7724 206.8858C258.6452 207.9038 258.1342 212.2384 258.007 213.2624C257.9434 213.7818 257.5 214.1614 256.991 214.1614Z" stroke-width="1"></path></g><g id="fly"><path id="vector_24" fill="#5d0029" d="M220.6086 15.1668C218.6732 12.2626 214.6956 12.398 211.264 13.5966C211.1738 12.9706 210.9952 12.3694 210.7324 11.8112C213.5852 10.947 215.8676 8.9666 217.1194 6.2142C217.3534 5.6992 217.1256 5.0896 216.6084 4.8556C216.0934 4.6216 215.4858 4.8494 215.2498 5.3646C214.1538 7.7762 212.0644 9.4488 209.4642 10.0234C209.1706 9.732 208.8442 9.459 208.483 9.2086C206.8166 8.3754 204.7642 8.2626 202.8822 8.8884C194.3956 11.4354 193.9912 22.348 202.6626 22.348C207.145 22.348 210.5354 19.054 211.1984 15.8236C213.924 14.707 217.491 14.1898 218.901 16.3058C219.644 17.4162 221.368 16.3058 220.6086 15.1668Z" stroke-width="1"></path><path id="vector_25" fill="#ffe9f4" d="M209.4436 15.4526C205.3942 18.0056 202.3588 22.0674 201.3428 26.636C200.4296 29.8336 203.7996 32.557 205.897 30.4636C210.3322 27.0136 211.1656 20.6882 209.4436 15.4526Z" stroke-width="1"></path><path id="vector_26" fill="#5d0029" d="M200.3578 26.3526C201.4004 21.6548 204.5178 17.3448 208.8976 14.5844C209.4642 14.2272 210.2112 14.5002 210.4206 15.1324C212.1302 20.331 211.5884 27.3378 206.5292 31.2742C203.8734 33.9546 199.1284 30.6544 200.3598 26.3548L200.3578 26.3526ZM208.8422 17.1068C205.5298 19.5676 203.19 23.0566 202.3464 26.8556C201.6774 29.2056 203.9104 30.9992 205.1726 29.735C209.1214 26.6544 209.8376 21.4188 208.8422 17.1068Z" stroke-width="1"></path><path id="vector_27" fill="#ffe9f4" d="M197.5664 11.401C194.8348 9.761 193.5376 5.0242 197.5664 5.0242C200.1176 5.0242 202.8842 5.8348 204.9632 7.5752C206.2152 8.624 210.0634 11.9098 209.0434 13.441C207.7668 15.3558 199.818 12.7514 197.5664 11.401Z" stroke-width="1"></path><path id="vector_28" fill="#5d0029" d="M207.1038 15.1404C205.1398 15.1404 200.097 14.1162 197.037 12.2814C194.8778 10.9862 193.236 7.8194 194.3524 5.5864C195.079 4.4824 196.1094 4 197.5644 4C200.6574 4 203.6004 5.022 205.6364 6.8036C212.4648 12.2608 210.5848 15.1404 207.1038 15.1404ZM197.5664 6.0504C196.682 6.0504 196.3514 6.276 196.1258 6.6126C196.0436 6.7954 196.0436 7.138 196.0436 7.5732C196.2346 8.6302 197.0842 9.9108 198.096 10.5184C201.4762 12.5462 207.734 13.5518 208.1916 12.8704C208.321 12.4086 207.0238 10.5348 204.323 8.3756C202.6194 6.8878 200.171 6.0504 197.5664 6.0504Z" stroke-width="1"></path><path id="vector_29" fill="#5d0029" d="M198.332 187.8908C197.9112 187.8908 197.5152 187.6302 197.3654 187.2094C191.8916 171.8782 203.584 155.806 217.5588 149.7084C245.8692 137.3552 280.3368 152.8116 305.6386 135.7706C307.1634 134.8964 308.6042 133.3612 309.657 131.5222C310.8496 128.3062 309.062 124.1234 305.4292 121.9438C301.9278 120.0782 298.0612 119.0314 293.6548 118.7728C275.0068 116.2896 256.3814 111.0292 238.218 103.1318C226.8498 97.9988 220.9842 91.6876 220.7686 84.3688C220.5018 72.0484 235.7982 65.9386 248.1084 66.4804C267.0642 66.9934 285.63 73.9244 304.1362 77.9798C327.445 83.0882 345.3848 81.5448 358.9798 73.2594C364.9706 69.836 368.784 64.7974 369.2028 59.769C369.7424 49.4948 356.3158 43.8878 350.5178 41.9544C323.1966 33.5294 294.2766 32.3884 266.9102 38.6644C243.3304 43.9904 218.7532 54.7982 194.7588 48.6042C171.6408 42.5722 177.1022 22.7668 187.323 22.3562C188.694 22.3132 188.7516 24.3532 187.4052 24.4066C179.5014 24.7226 174.5408 41.2074 195.274 46.6174C218.63 52.6452 242.9856 41.9626 266.4546 36.6634C294.1678 30.3052 323.4552 31.4586 351.1458 39.9986C357.4118 42.0858 371.8666 48.1916 371.251 59.9066C370.7748 65.641 366.5778 71.2808 360.0244 75.0264C345.98 83.5848 327.5498 85.2104 303.697 79.983C285.2112 75.9316 266.6988 69.0336 248.0364 68.5306C237.0974 68.036 222.5808 73.3086 222.821 84.3156C223.0118 90.7764 228.4712 96.478 239.0492 101.2558C257.026 109.0714 275.4666 114.2802 293.8496 116.7308C298.4818 116.9996 302.6256 118.1244 306.439 120.1582C311.026 122.9084 313.1378 128.0434 311.5062 132.3904C310.2092 134.689 308.4892 136.5014 306.718 137.511C280.813 154.9646 246.2078 139.4444 218.3756 151.5884C205.2464 157.3186 194.217 172.301 199.2946 186.5178C199.5346 187.1888 199.034 187.8888 198.328 187.8888L198.332 187.8908Z" stroke-width="1"></path></g></g></svg>